# xmcd CD database file
#
# Track frame offsets:
#	150
#	25307
#	46850
#	67037
#	85670
#	103942
#	117547
#	136655
#	156270
#	173285
#	191470
#	210870
#	230177
#	251942
#
# Disc length: 3487 seconds
#
# Revision: 0
# Processed by: cddbd v1.5.1PL0 Copyright (c) Steve Scherf et al.
# Submitted via: CDex 1.51
#
DISCID=bb0d9d0e
DTITLE=熊木杏里 - 無から出た錆
DYEAR=2005
DGENRE=Pop
TTITLE0=長い話
TTITLE1=夏蝉
TTITLE2=あなたに逢いたい
TTITLE3=景色
TTITLE4=おうちを忘れたカナリア
TTITLE5=新春白書
TTITLE6=雨
TTITLE7=説教と楓
TTITLE8=ムーンスター
TTITLE9=イマジンが聞こえた
TTITLE10=夢のある喫茶店
TTITLE11=祖母と二人で
TTITLE12=風のひこうき
TTITLE13=私をたどる物語
EXTD=YEAR: 2005
EXTT0=
EXTT1=
EXTT2=
EXTT3=
EXTT4=
EXTT5=
EXTT6=
EXTT7=
EXTT8=
EXTT9=
EXTT10=
EXTT11=
EXTT12=
EXTT13=
PLAYORDER=
